<svg width="50" height="48" viewBox="0 0 50 48" fill="none" xmlns="http://www.w3.org/2000/svg">
<g filter="url(#filter0_d)">
<path d="M8 0.49999H42C43.933 0.49999 45.5 2.06699 45.5 3.99999V36C45.5 37.933 43.933 39.5 42 39.5H8C6.067 39.5 4.5 37.933 4.5 36V3.99999C4.5 2.06699 6.067 0.49999 8 0.49999Z" fill="white" stroke="#0B4283"/>
<path d="M33.7301 22.2663L34.7744 16.2787H28.2555V12.3974C28.2555 10.7587 29.1698 9.15858 32.0834 9.15858H35.0436V4.06334C33.3073 3.79781 31.5487 3.66204 29.7865 3.65747C24.4216 3.65747 20.9148 6.5245 20.9148 11.721V16.2822H14.9567V22.2663H20.9158V36.7358C23.3475 37.0758 25.8248 37.0758 28.2565 36.7358V22.2663H33.7301Z" fill="#0B4283"/>
</g>
<defs>
<filter id="filter0_d" x="0" y="0" width="50" height="48" filterUnits="userSpaceOnUse" color-interpolation-filters="sRGB">
<feFlood flood-opacity="0" result="BackgroundImageFix"/>
<feColorMatrix in="SourceAlpha" type="matrix" values="0 0 0 0 0 0 0 0 0 0 0 0 0 0 0 0 0 0 127 0" result="hardAlpha"/>
<feOffset dy="4"/>
<feGaussianBlur stdDeviation="2"/>
<feComposite in2="hardAlpha" operator="out"/>
<feColorMatrix type="matrix" values="0 0 0 0 0 0 0 0 0 0 0 0 0 0 0 0 0 0 0.15 0"/>
<feBlend mode="normal" in2="BackgroundImageFix" result="effect1_dropShadow"/>
<feBlend mode="normal" in="SourceGraphic" in2="effect1_dropShadow" result="shape"/>
</filter>
</defs>
</svg>
